<svg width="1371" height="366" viewBox="0 0 1371 366" fill="none" xmlns="http://www.w3.org/2000/svg">
<g opacity="0.9">
<mask id="path-1-outside-1_1_18" maskUnits="userSpaceOnUse" x="0" y="0" width="1371" height="366" fill="black">
<rect fill="white" width="1371" height="366"/>
<path d="M1.4375 365V1.36363H100.159V143.409H230.841V1.36363H329.562V365H230.841V222.955H100.159V365H1.4375ZM525.159 1.36363V365H426.438V1.36363H525.159ZM621.945 365V1.36363H779.616C807.315 1.36363 830.575 5.09232 849.396 12.5497C868.335 20.0071 882.599 30.5421 892.187 44.1548C901.893 57.7675 906.746 73.8068 906.746 92.2727C906.746 105.649 903.787 117.841 897.869 128.849C892.068 139.858 883.901 149.091 873.366 156.548C862.831 163.887 850.52 168.977 836.434 171.818V175.369C852.059 175.961 866.264 179.927 879.048 187.266C891.832 194.486 902.012 204.489 909.587 217.273C917.163 229.938 920.951 244.853 920.951 262.017C920.951 281.903 915.743 299.6 905.326 315.107C895.028 330.613 880.35 342.805 861.292 351.683C842.234 360.561 819.507 365 793.11 365H621.945ZM720.667 286.165H766.832C783.404 286.165 795.833 283.087 804.119 276.932C812.405 270.658 816.548 261.425 816.548 249.233C816.548 240.71 814.594 233.49 810.688 227.571C806.782 221.652 801.219 217.154 793.998 214.077C786.896 210.999 778.314 209.46 768.252 209.46H720.667V286.165ZM720.667 148.381H761.15C769.791 148.381 777.426 147.019 784.055 144.297C790.683 141.574 795.833 137.668 799.502 132.578C803.29 127.37 805.184 121.037 805.184 113.58C805.184 102.334 801.159 93.7524 793.11 87.8338C785.061 81.7969 774.881 78.7784 762.57 78.7784H720.667V148.381ZM1100.39 365H993.856L1113.88 1.36363H1248.83L1368.86 365H1262.32L1182.78 101.506H1179.94L1100.39 365ZM1080.5 221.534H1280.79V295.398H1080.5V221.534Z"/>
</mask>
<path d="M1.4375 365H0.4375V366H1.4375V365ZM1.4375 1.36363V0.363626H0.4375V1.36363H1.4375ZM100.159 1.36363H101.159V0.363626H100.159V1.36363ZM100.159 143.409H99.1591V144.409H100.159V143.409ZM230.841 143.409V144.409H231.841V143.409H230.841ZM230.841 1.36363V0.363626H229.841V1.36363H230.841ZM329.562 1.36363H330.562V0.363626H329.562V1.36363ZM329.562 365V366H330.562V365H329.562ZM230.841 365H229.841V366H230.841V365ZM230.841 222.955H231.841V221.955H230.841V222.955ZM100.159 222.955V221.955H99.1591V222.955H100.159ZM100.159 365V366H101.159V365H100.159ZM1.4375 365H2.4375V1.36363H1.4375H0.4375V365H1.4375ZM1.4375 1.36363V2.36363H100.159V1.36363V0.363626H1.4375V1.36363ZM100.159 1.36363H99.1591V143.409H100.159H101.159V1.36363H100.159ZM100.159 143.409V144.409H230.841V143.409V142.409H100.159V143.409ZM230.841 143.409H231.841V1.36363H230.841H229.841V143.409H230.841ZM230.841 1.36363V2.36363H329.562V1.36363V0.363626H230.841V1.36363ZM329.562 1.36363H328.562V365H329.562H330.562V1.36363H329.562ZM329.562 365V364H230.841V365V366H329.562V365ZM230.841 365H231.841V222.955H230.841H229.841V365H230.841ZM230.841 222.955V221.955H100.159V222.955V223.955H230.841V222.955ZM100.159 222.955H99.1591V365H100.159H101.159V222.955H100.159ZM100.159 365V364H1.4375V365V366H100.159V365ZM525.159 1.36363H526.159V0.363626H525.159V1.36363ZM525.159 365V366H526.159V365H525.159ZM426.438 365H425.438V366H426.438V365ZM426.438 1.36363V0.363626H425.438V1.36363H426.438ZM525.159 1.36363H524.159V365H525.159H526.159V1.36363H525.159ZM525.159 365V364H426.438V365V366H525.159V365ZM426.438 365H427.438V1.36363H426.438H425.438V365H426.438ZM426.438 1.36363V2.36363H525.159V1.36363V0.363626H426.438V1.36363ZM621.945 365H620.945V366H621.945V365ZM621.945 1.36363V0.363626H620.945V1.36363H621.945ZM849.396 12.5497L849.027 13.4794L849.029 13.4802L849.396 12.5497ZM892.187 44.1548L891.369 44.7307L891.373 44.7354L892.187 44.1548ZM897.869 128.849L896.988 128.376L896.984 128.383L897.869 128.849ZM873.366 156.548L873.937 157.369L873.944 157.364L873.366 156.548ZM836.434 171.818L836.236 170.838L835.434 171V171.818H836.434ZM836.434 175.369H835.434V176.332L836.396 176.369L836.434 175.369ZM879.048 187.266L878.55 188.133L878.556 188.136L879.048 187.266ZM909.587 217.273L908.727 217.783L908.729 217.786L909.587 217.273ZM905.326 315.107L904.496 314.549L904.493 314.553L905.326 315.107ZM861.292 351.683L860.87 350.777L860.87 350.777L861.292 351.683ZM720.667 286.165H719.667V287.165H720.667V286.165ZM804.119 276.932L804.715 277.735L804.722 277.729L804.119 276.932ZM793.998 214.077L793.6 214.994L793.606 214.997L793.998 214.077ZM720.667 209.46V208.46H719.667V209.46H720.667ZM720.667 148.381H719.667V149.381H720.667V148.381ZM784.055 144.297L784.435 145.222L784.435 145.222L784.055 144.297ZM799.502 132.578L798.693 131.99L798.691 131.993L799.502 132.578ZM793.11 87.8338L792.51 88.6338L792.518 88.6395L793.11 87.8338ZM720.667 78.7784V77.7784H719.667V78.7784H720.667ZM621.945 365H622.945V1.36363H621.945H620.945V365H621.945ZM621.945 1.36363V2.36363H779.616V1.36363V0.363626H621.945V1.36363ZM779.616 1.36363V2.36363C807.232 2.36363 830.358 6.08215 849.027 13.4794L849.396 12.5497L849.764 11.62C830.791 4.1025 807.397 0.363626 779.616 0.363626V1.36363ZM849.396 12.5497L849.029 13.4802C867.828 20.882 881.917 31.3101 891.369 44.7307L892.187 44.1548L893.004 43.579C883.281 29.7741 868.842 19.1322 849.762 11.6192L849.396 12.5497ZM892.187 44.1548L891.373 44.7354C900.946 58.1609 905.746 73.9922 905.746 92.2727H906.746H907.746C907.746 73.6215 902.841 57.3741 893.001 43.5742L892.187 44.1548ZM906.746 92.2727H905.746C905.746 105.495 902.823 117.523 896.988 128.376L897.869 128.849L898.749 129.323C904.752 118.159 907.746 105.802 907.746 92.2727H906.746ZM897.869 128.849L896.984 128.383C891.26 139.247 883.2 148.362 872.788 155.732L873.366 156.548L873.944 157.364C884.602 149.82 892.877 140.469 898.753 129.316L897.869 128.849ZM873.366 156.548L872.794 155.728C862.384 162.98 850.204 168.021 836.236 170.838L836.434 171.818L836.632 172.798C850.836 169.934 863.277 164.795 873.937 157.369L873.366 156.548ZM836.434 171.818H835.434V175.369H836.434H837.434V171.818H836.434ZM836.434 175.369L836.396 176.369C851.869 176.955 865.915 180.879 878.55 188.133L879.048 187.266L879.545 186.398C866.612 178.974 852.248 174.968 836.472 174.37L836.434 175.369ZM879.048 187.266L878.556 188.136C891.186 195.27 901.239 205.147 908.727 217.783L909.587 217.273L910.448 216.763C902.784 203.83 892.478 193.703 879.539 186.395L879.048 187.266ZM909.587 217.273L908.729 217.786C916.198 230.273 919.951 245.004 919.951 262.017H920.951H921.951C921.951 244.702 918.128 229.604 910.446 216.759L909.587 217.273ZM920.951 262.017H919.951C919.951 281.718 914.795 299.218 904.496 314.549L905.326 315.107L906.156 315.664C916.691 299.982 921.951 282.089 921.951 262.017H920.951ZM905.326 315.107L904.493 314.553C894.309 329.887 879.783 341.966 860.87 350.777L861.292 351.683L861.714 352.59C880.917 343.644 895.746 331.339 906.159 315.66L905.326 315.107ZM861.292 351.683L860.87 350.777C841.973 359.579 819.397 364 793.11 364V365V366C819.617 366 842.495 361.543 861.714 352.59L861.292 351.683ZM793.11 365V364H621.945V365V366H793.11V365ZM720.667 286.165V287.165H766.832V286.165V285.165H720.667V286.165ZM766.832 286.165V287.165C783.498 287.165 796.18 284.075 804.715 277.735L804.119 276.932L803.522 276.129C795.485 282.1 783.309 285.165 766.832 285.165V286.165ZM804.119 276.932L804.722 277.729C813.303 271.232 817.548 261.677 817.548 249.233H816.548H815.548C815.548 261.173 811.506 270.084 803.515 276.135L804.119 276.932ZM816.548 249.233H817.548C817.548 240.554 815.557 233.133 811.523 227.02L810.688 227.571L809.854 228.122C813.632 233.846 815.548 240.866 815.548 249.233H816.548ZM810.688 227.571L811.523 227.02C807.497 220.921 801.771 216.303 794.39 213.157L793.998 214.077L793.606 214.997C800.666 218.006 806.067 222.384 809.854 228.122L810.688 227.571ZM793.998 214.077L794.395 213.159C787.136 210.013 778.411 208.46 768.252 208.46V209.46V210.46C778.216 210.46 786.655 211.985 793.6 214.994L793.998 214.077ZM768.252 209.46V208.46H720.667V209.46V210.46H768.252V209.46ZM720.667 209.46H719.667V286.165H720.667H721.667V209.46H720.667ZM720.667 148.381V149.381H761.15V148.381V147.381H720.667V148.381ZM761.15 148.381V149.381C769.895 149.381 777.663 148.003 784.435 145.222L784.055 144.297L783.675 143.372C777.189 146.036 769.687 147.381 761.15 147.381V148.381ZM784.055 144.297L784.435 145.222C791.211 142.439 796.52 138.425 800.313 133.163L799.502 132.578L798.691 131.993C795.145 136.911 790.156 140.71 783.675 143.372L784.055 144.297ZM799.502 132.578L800.311 133.166C804.242 127.761 806.184 121.214 806.184 113.58H805.184H804.184C804.184 120.86 802.338 126.979 798.693 131.99L799.502 132.578ZM805.184 113.58H806.184C806.184 102.062 802.043 93.1608 793.702 87.0282L793.11 87.8338L792.518 88.6395C800.276 94.3439 804.184 102.606 804.184 113.58H805.184ZM793.11 87.8338L793.71 87.0338C785.452 80.8402 775.048 77.7784 762.57 77.7784V78.7784V79.7784C774.714 79.7784 784.67 82.7535 792.51 88.6338L793.11 87.8338ZM762.57 78.7784V77.7784H720.667V78.7784V79.7784H762.57V78.7784ZM720.667 78.7784H719.667V148.381H720.667H721.667V78.7784H720.667ZM1100.39 365V366H1101.13L1101.35 365.289L1100.39 365ZM993.856 365L992.906 364.687L992.473 366H993.856V365ZM1113.88 1.36363V0.363626H1113.16L1112.93 1.05018L1113.88 1.36363ZM1248.83 1.36363L1249.78 1.05018L1249.55 0.363626H1248.83V1.36363ZM1368.86 365V366H1370.24L1369.81 364.687L1368.86 365ZM1262.32 365L1261.36 365.289L1261.58 366H1262.32V365ZM1182.78 101.506L1183.73 101.217L1183.52 100.506H1182.78V101.506ZM1179.94 101.506V100.506H1179.19L1178.98 101.217L1179.94 101.506ZM1080.5 221.534V220.534H1079.5V221.534H1080.5ZM1280.79 221.534H1281.79V220.534H1280.79V221.534ZM1280.79 295.398V296.398H1281.79V295.398H1280.79ZM1080.5 295.398H1079.5V296.398H1080.5V295.398ZM1100.39 365V364H993.856V365V366H1100.39V365ZM993.856 365L994.805 365.313L1114.83 1.67707L1113.88 1.36363L1112.93 1.05018L992.906 364.687L993.856 365ZM1113.88 1.36363V2.36363H1248.83V1.36363V0.363626H1113.88V1.36363ZM1248.83 1.36363L1247.88 1.67707L1367.91 365.313L1368.86 365L1369.81 364.687L1249.78 1.05018L1248.83 1.36363ZM1368.86 365V364H1262.32V365V366H1368.86V365ZM1262.32 365L1263.28 364.711L1183.73 101.217L1182.78 101.506L1181.82 101.795L1261.36 365.289L1262.32 365ZM1182.78 101.506V100.506H1179.94V101.506V102.506H1182.78V101.506ZM1179.94 101.506L1178.98 101.217L1099.43 364.711L1100.39 365L1101.35 365.289L1180.89 101.795L1179.94 101.506ZM1080.5 221.534V222.534H1280.79V221.534V220.534H1080.5V221.534ZM1280.79 221.534H1279.79V295.398H1280.79H1281.79V221.534H1280.79ZM1280.79 295.398V294.398H1080.5V295.398V296.398H1280.79V295.398ZM1080.5 295.398H1081.5V221.534H1080.5H1079.5V295.398H1080.5Z" fill="white" fill-opacity="0.35" mask="url(#path-1-outside-1_1_18)"/>
</g>
</svg>
